<?xml version="1.0" encoding="UTF-8" standalone="no"?>
<!DOCTYPE svg  PUBLIC '-//W3C//DTD SVG 1.1//EN'  'http://www.w3.org/Graphics/SVG/1.1/DTD/svg11.dtd'>
<svg xmlns="http://www.w3.org/2000/svg" height="105.17" width="110.07" version="1.1" preserveAspectRatio="xMidYMid meet" xmlns:xlink="http://www.w3.org/1999/xlink" viewBox="7.872340871021805 -0.04419597989954127 114.06945979899498 109.17130653266332">
 <defs>
  <path id="atddI89gG" d="m72.2 24.74v35.05l24.28-24.27-24.28-10.78z"/>
  <path id="bb3qzAfJB" d="m72.2 24.74v35.05l24.28-24.27-24.28-10.78z"/>
  <path id="e1ioSjV5V4" d="m55.61 50.33l-29.76 55.8 42.82-42.83-13.06-12.97z"/>
  <path id="c5falcEk4l" d="m55.61 50.33l-29.76 55.8 42.82-42.83-13.06-12.97z"/>
  <path id="c4WTNmlMAG" d="m70.13 23.1l-61.26-22.14 61.26 60.88v-38.74z"/>
  <path id="d19wmjc6Mu" d="m70.13 23.1l-61.26-22.14 61.26 60.88v-38.74z"/>
  <path id="c22Nre6N3" d="m118.94 43.26l-10.04-20.16h-35.3l45.34 20.16z"/>
  <path id="a5sQQTI8o" d="m118.94 43.26l-10.04-20.16h-35.3l45.34 20.16z"/>
 </defs>
 <use xlink:href="#atddI89gG" fill="#82bea0"/>
 <use stroke-opacity="0" fill-opacity="0" xlink:href="#atddI89gG" stroke="#000000"/>
 <use xlink:href="#bb3qzAfJB" fill-opacity="0" fill="#000000"/>
 <use stroke-opacity="0" fill-opacity="0" xlink:href="#bb3qzAfJB" stroke="#000000"/>
 <use xlink:href="#e1ioSjV5V4" fill="#82bea0"/>
 <use stroke-opacity="0" fill-opacity="0" xlink:href="#e1ioSjV5V4" stroke="#000000"/>
 <use xlink:href="#c5falcEk4l" fill-opacity="0" fill="#000000"/>
 <use stroke-opacity="0" fill-opacity="0" xlink:href="#c5falcEk4l" stroke="#000000"/>
 <use xlink:href="#c4WTNmlMAG" fill="#82bea0"/>
 <use stroke-opacity="0" fill-opacity="0" xlink:href="#c4WTNmlMAG" stroke="#000000"/>
 <use xlink:href="#d19wmjc6Mu" fill-opacity="0" fill="#000000"/>
 <use stroke-opacity="0" fill-opacity="0" xlink:href="#d19wmjc6Mu" stroke="#000000"/>
 <use xlink:href="#c22Nre6N3" fill="#fa6441"/>
 <use stroke-opacity="0" fill-opacity="0" xlink:href="#c22Nre6N3" stroke="#000000"/>
 <use xlink:href="#a5sQQTI8o" fill-opacity="0" fill="#000000"/>
 <use stroke-opacity="0" fill-opacity="0" xlink:href="#a5sQQTI8o" stroke="#000000"/>
</svg>
